<svg width="42" height="38" viewBox="0 0 42 38" fill="none" xmlns="http://www.w3.org/2000/svg">
<path d="M37.9397 22.1654L41.3357 7.28121C41.5809 6.20655 40.7608 5.18319 39.6545 5.18319H11.4374L10.7789 1.97665C10.6148 1.17742 9.90876 0.603447 9.08973 0.603447H1.72414C0.771911 0.603447 0 1.37234 0 2.32085V3.46579C0 4.41429 0.771911 5.18319 1.72414 5.18319H6.74447L11.791 29.7589C10.5837 30.4505 9.77011 31.7473 9.77011 33.2341C9.77011 35.4473 11.5713 37.2414 13.7931 37.2414C16.0149 37.2414 17.8161 35.4473 17.8161 33.2341C17.8161 32.1125 17.3529 31.0992 16.6075 30.3718H31.6683C30.9229 31.0992 30.4598 32.1125 30.4598 33.2341C30.4598 35.4473 32.2609 37.2414 34.4828 37.2414C36.7046 37.2414 38.5057 35.4473 38.5057 33.2341C38.5057 31.6475 37.5799 30.2765 36.2371 29.6272L36.6335 27.89C36.8787 26.8154 36.0586 25.792 34.9522 25.792H15.6693L15.1991 23.5022H36.2584C37.0634 23.5022 37.7613 22.9473 37.9397 22.1654Z" fill="white"/>
</svg>
