<svg width="152" height="49" viewBox="0 0 152 49" fill="none" xmlns="http://www.w3.org/2000/svg">
<path fill-rule="evenodd" clip-rule="evenodd" d="M2.62109 6.86646e-05H18.8314L9.01529 21.9799L2.62109 6.86646e-05Z" fill="url(#paint0_linear_171_1502)"/>
<path fill-rule="evenodd" clip-rule="evenodd" d="M37.5453 0H21.506L0 48.1182H16.3303L37.5453 0Z" fill="url(#paint1_linear_171_1502)"/>
<path fill-rule="evenodd" clip-rule="evenodd" d="M56.3766 6.86646e-05H40.3371L18.8311 48.1183H35.1617L56.3766 6.86646e-05Z" fill="url(#paint2_linear_171_1502)"/>
<path d="M144.545 21.5079C142.719 21.3238 141.859 21.1371 141.859 20.2237C141.859 19.4628 143.004 19.1931 143.984 19.1931C145.65 19.1931 146.917 19.5602 147.973 20.3481L148.194 20.5133L151.024 16.9216L150.802 16.7476C148.899 15.2578 146.796 14.5934 143.984 14.5934C140.427 14.5934 136.273 16.0681 136.273 20.2238C136.273 24.9046 139.869 25.8775 143.756 26.2315C144.768 26.3229 146.465 26.6181 146.465 27.5659C146.465 28.3454 145.482 28.8486 143.959 28.8486C141.927 28.8486 140.291 28.2228 138.958 26.9352L138.744 26.7284L135.615 30.2989L135.793 30.4848C138.308 33.1168 140.709 33.6764 143.734 33.6764C143.801 33.6764 143.868 33.6761 143.936 33.6755C147.656 33.652 152 32.0573 152 27.6415C152 24.1528 149.423 22.0319 144.545 21.5081L144.545 21.5079Z" fill="white"/>
<path d="M125.403 26.2829H133.795V21.6579H125.403V19.6979H134.302V14.9466H119.893V33.1708H134.657V28.3944H125.403V26.2829Z" fill="white"/>
<path d="M106.686 20.7487L102.159 14.9467H96.4897V33.1709H102.025V23.1736L106.046 27.9985H107.198L111.322 23.1379V33.1709H116.857V14.9467H111.213L106.686 20.7487Z" fill="white"/>
<path d="M86.6942 25.5181H82.9919L84.8533 20.9288L86.6942 25.5181ZM82.1618 14.9465L73.9463 33.1709H79.8994L81.0656 30.2694H88.6189L89.7854 33.1709H95.7882L87.5996 14.9465H82.1618Z" fill="white"/>
<path d="M74.2598 29.9781V21.784H65.0226V26.2576H69.5105V28.0995C68.4471 28.7965 66.9712 28.874 66.3707 28.874C63.061 28.874 61.8866 26.2934 61.8866 24.0841C61.8866 20.9302 63.4791 19.1933 66.3707 19.1933C67.2301 19.1933 68.8746 19.3832 70.2331 20.6558L70.4322 20.8422L73.7427 17.5766L73.544 17.3767C70.9805 14.7976 68.5814 14.4419 66.3707 14.4419C59.5041 14.4419 56.377 19.4401 56.377 24.084C56.377 28.7088 58.9954 33.6503 66.3449 33.6503C70.1017 33.6503 73.1228 32.2656 74.2304 30.037L74.2599 29.9781L74.2598 29.9781Z" fill="white"/>
<defs>
<linearGradient id="paint0_linear_171_1502" x1="10.7262" y1="6.86646e-05" x2="10.7262" y2="21.9799" gradientUnits="userSpaceOnUse">
<stop stop-color="#F08428"/>
<stop offset="1" stop-color="#EA5F29"/>
</linearGradient>
<linearGradient id="paint1_linear_171_1502" x1="27.7339" y1="-2.78683" x2="15.0136" y2="35.6962" gradientUnits="userSpaceOnUse">
<stop stop-color="#F08428"/>
<stop offset="1" stop-color="#EA5F29"/>
</linearGradient>
<linearGradient id="paint2_linear_171_1502" x1="37.6038" y1="6.86646e-05" x2="37.6038" y2="48.1183" gradientUnits="userSpaceOnUse">
<stop stop-color="#F08428"/>
<stop offset="1" stop-color="#EA5F29"/>
</linearGradient>
</defs>
</svg>
