<svg width="25" height="25" viewBox="0 0 25 25" fill="none" xmlns="http://www.w3.org/2000/svg">
<path d="M7.10147 12.5661L10.3082 12.6876L10.311 12.7235C9.78645 12.8194 9.41293 13.1163 8.86922 13.0671C8.20207 13.0076 7.82535 13.3736 7.56608 13.4583C7.30681 13.5429 7.15181 13.3664 7.11465 13.4423C7.0779 13.519 7.28244 13.6852 7.65117 13.6312C8.0199 13.5765 8.12936 13.2972 8.94353 13.3632C9.63425 13.4187 9.87674 13.1406 10.3877 13.1147C10.3921 13.131 10.3965 13.1478 10.4021 13.1638L7.48618 14.5022C7.48618 14.5022 7.3927 14.5414 7.41827 14.6045C7.44384 14.6664 7.53772 14.6276 7.53772 14.6276L10.5463 13.5118C10.5519 13.5226 10.5571 13.5342 10.5631 13.5441C10.1156 13.8342 9.88393 14.2509 9.36259 14.4135C8.72301 14.6137 8.51527 15.0963 8.30794 15.2737C8.1006 15.4515 7.88967 15.3472 7.88487 15.4323C7.87968 15.5166 8.13296 15.5925 8.45295 15.4007C8.77294 15.2093 8.76695 14.9089 9.54396 14.658C10.2039 14.4459 10.3214 14.0967 10.7836 13.8761C10.794 13.8893 10.8052 13.9021 10.8163 13.9153L8.63432 16.2689C8.63432 16.2689 8.56201 16.3412 8.60995 16.3887C8.65749 16.4363 8.7298 16.3648 8.7298 16.3648L11.0824 14.1826L11.11 14.2058C10.8072 14.6448 10.7524 15.1187 10.3334 15.4686C9.81961 15.8973 9.81162 16.4235 9.68858 16.6672C9.56513 16.9101 9.33063 16.8949 9.3586 16.9752C9.38616 17.0547 9.64983 17.028 9.87115 16.7287C10.0937 16.4295 9.97342 16.1546 10.5954 15.6252C11.1236 15.1758 11.0976 14.8082 11.4399 14.4283C11.4551 14.4367 11.4707 14.4447 11.4863 14.4523L10.3705 17.4614C10.3705 17.4614 10.3314 17.5549 10.3945 17.5813C10.4568 17.6073 10.4959 17.513 10.4959 17.513L11.8346 14.5973C11.8462 14.6013 11.8578 14.6045 11.8698 14.6077C11.7571 15.129 11.8886 15.5877 11.6349 16.0719C11.3245 16.6648 11.5178 17.153 11.4975 17.4255C11.4767 17.6972 11.2542 17.7731 11.3101 17.8358C11.3664 17.8993 11.5989 17.7739 11.6896 17.4123C11.7807 17.0507 11.5642 16.8426 11.9365 16.1155C12.2521 15.4986 12.0887 15.1686 12.2597 14.686C12.2765 14.6884 12.2941 14.6892 12.3104 14.6916L12.4315 17.8981C12.4315 17.8981 12.4315 18 12.499 18C12.5673 18 12.5665 17.8981 12.5665 17.8981L12.6876 14.6916C12.6999 14.69 12.7119 14.6892 12.7239 14.6884C12.8198 15.2129 13.1166 15.5861 13.0675 16.1306C13.0076 16.7974 13.3739 17.1742 13.4586 17.4339C13.5433 17.6928 13.3671 17.8482 13.443 17.8849C13.5189 17.9217 13.6859 17.7167 13.6316 17.3476C13.5772 16.9792 13.2976 16.8698 13.3631 16.0559C13.419 15.3652 13.1414 15.1227 13.115 14.6117C13.1314 14.6069 13.1478 14.6029 13.1642 14.5973L14.5025 17.513C14.5025 17.513 14.5416 17.6073 14.6039 17.5813C14.6666 17.5553 14.6279 17.4614 14.6279 17.4614L13.5125 14.4531C13.5229 14.4467 13.5345 14.4427 13.5445 14.4363C13.8341 14.8841 14.2508 15.1159 14.4138 15.6372C14.6135 16.2765 15.0961 16.4842 15.2739 16.6916C15.4516 16.8989 15.3478 17.1099 15.4321 17.1147C15.5172 17.1199 15.5927 16.8666 15.4017 16.5465C15.2104 16.2265 14.9095 16.2329 14.6587 15.4559C14.4461 14.7958 14.0966 14.6776 13.8764 14.2157C13.8896 14.205 13.9028 14.1938 13.9164 14.1834L16.2694 16.3656C16.2694 16.3656 16.3409 16.4379 16.3892 16.3895C16.4368 16.342 16.3649 16.2697 16.3649 16.2697L14.1829 13.9169C14.1908 13.9081 14.1984 13.8985 14.2064 13.8889C14.6455 14.1926 15.1189 14.2469 15.4692 14.666C15.8983 15.1802 16.4236 15.1878 16.6673 15.3112C16.9102 15.4343 16.895 15.6688 16.9753 15.6412C17.0556 15.6129 17.0288 15.35 16.7296 15.1278C16.4308 14.9061 16.1551 15.0264 15.6254 14.4039C15.1764 13.8753 14.8085 13.9021 14.4285 13.5593L14.4537 13.5126L17.4619 14.6292C17.4619 14.6292 17.5558 14.6676 17.5817 14.6053C17.6073 14.5421 17.5138 14.5038 17.5138 14.5038L14.5979 13.1646C14.6018 13.1533 14.6051 13.1418 14.6079 13.1302C15.1301 13.2421 15.5883 13.1111 16.0721 13.3648C16.6649 13.6748 17.1539 13.4806 17.4255 13.5014C17.698 13.5226 17.7735 13.7455 17.8366 13.6888C17.8997 13.6328 17.7743 13.4003 17.4127 13.3092C17.0516 13.2185 16.8431 13.4347 16.116 13.0631C15.4988 12.7467 15.1688 12.9109 14.687 12.7399L14.6918 12.6884L17.8985 12.5677C17.8985 12.5677 18 12.5677 18 12.5002C18 12.4319 17.8985 12.4327 17.8985 12.4327L14.6918 12.3112L14.689 12.2753C15.2135 12.1794 15.5871 11.8825 16.1308 11.9317C16.7979 11.9912 17.1747 11.6252 17.4339 11.5406C17.6932 11.4559 17.8482 11.6324 17.8853 11.5565C17.9225 11.4806 17.7172 11.3136 17.3488 11.3676C16.9801 11.4223 16.8706 11.7016 16.0565 11.6364C15.3658 11.5801 15.1233 11.8582 14.6123 11.8841L14.5979 11.835L17.5138 10.4966C17.5138 10.4966 17.6073 10.4575 17.5817 10.3951C17.5562 10.3324 17.4623 10.3712 17.4623 10.3712L14.4537 11.487C14.4477 11.4762 14.4429 11.4646 14.4369 11.4539C14.8844 11.1646 15.1161 10.7479 15.6374 10.5853C16.2766 10.3851 16.4847 9.90252 16.6921 9.72553C16.8994 9.54734 17.1103 9.65162 17.1151 9.56732C17.1203 9.48222 16.867 9.40711 16.547 9.59808C16.2271 9.78905 16.233 10.0899 15.456 10.3408C14.7961 10.5533 14.6786 10.9021 14.2164 11.1227C14.206 11.1095 14.1948 11.0967 14.1837 11.0835L16.3657 8.72992C16.3657 8.72992 16.438 8.65841 16.39 8.61007C16.3425 8.56252 16.2702 8.63404 16.2702 8.63404L13.9176 10.8162C13.9083 10.8085 13.8989 10.8008 13.8896 10.793C14.1928 10.354 14.2476 9.88014 14.6666 9.53016C15.1804 9.10148 15.1884 8.57531 15.3114 8.3324C15.4345 8.08949 15.6694 8.10388 15.6414 8.02397C15.6134 7.94447 15.3502 7.97123 15.1289 8.27048C14.9063 8.56972 15.0266 8.84459 14.4046 9.37395C13.8764 9.82341 13.9024 10.191 13.5601 10.5709C13.5448 10.5625 13.5294 10.5545 13.5137 10.5469L14.6295 7.53775C14.6295 7.53775 14.6686 7.44427 14.6055 7.4179C14.5432 7.39273 14.504 7.48622 14.504 7.48622L13.1654 10.4019L13.1302 10.3915C13.2429 9.87016 13.1114 9.41151 13.3651 8.92809C13.6755 8.3344 13.4821 7.84618 13.5025 7.57371C13.5233 7.30204 13.7458 7.22613 13.6899 7.1634C13.6336 7.09988 13.4011 7.22533 13.3104 7.5869C13.2193 7.94846 13.4358 8.15661 13.0635 8.88374C12.7475 9.5006 12.9113 9.8306 12.7403 10.3132C12.7235 10.3109 12.7065 10.3093 12.6896 10.3084L12.5685 7.10148C12.5685 7.10148 12.5685 7 12.5006 7C12.4331 7 12.4331 7.10148 12.4331 7.10148L12.312 10.3084L12.2761 10.3108C12.1798 9.78666 11.8834 9.4131 11.9325 8.86936C11.9924 8.20256 11.6261 7.82501 11.5414 7.56532C11.4567 7.30643 11.6329 7.15102 11.557 7.11426C11.4811 7.07751 11.3141 7.28246 11.3684 7.65082C11.4228 8.01998 11.7024 8.12944 11.6369 8.94327C11.581 9.63404 11.8586 9.87655 11.885 10.3875C11.8686 10.3923 11.8522 10.3963 11.8358 10.4019L10.4975 7.48622C10.4975 7.48622 10.4584 7.39273 10.3961 7.4179C10.3334 7.44387 10.3721 7.53775 10.3721 7.53775L11.4875 10.5461C11.4767 10.5525 11.4655 10.5565 11.4555 10.5629C11.1659 10.1151 10.7484 9.88414 10.5862 9.36197C10.3865 8.72273 9.9035 8.51498 9.72573 8.30763C9.54836 8.10028 9.65222 7.89013 9.56793 7.88454C9.48284 7.88014 9.40734 8.13344 9.59829 8.45266C9.78965 8.77267 10.0905 8.76628 10.3409 9.54415C10.5539 10.2034 10.9034 10.3216 11.1236 10.7839L11.0836 10.8158L8.7306 8.63364C8.7306 8.63364 8.65869 8.56213 8.61075 8.60967C8.56321 8.65721 8.63512 8.72952 8.63512 8.72952L10.8171 11.0823L10.7936 11.1103C10.3545 10.8074 9.88113 10.7527 9.53078 10.3332C9.10173 9.81902 8.57639 9.81143 8.3327 9.68797C8.08981 9.56532 8.10499 9.3304 8.0247 9.35797C7.9444 9.38634 7.97116 9.64922 8.27038 9.87135C8.5692 10.0935 8.84485 9.97283 9.37458 10.5953C9.82361 11.1239 10.1915 11.0979 10.5711 11.4399C10.5627 11.4551 10.5551 11.4706 10.5463 11.4858L7.53812 10.37C7.53812 10.37 7.44423 10.3316 7.41827 10.3943C7.3927 10.4571 7.48618 10.4962 7.48618 10.4962L10.4021 11.8346C10.3981 11.8458 10.3949 11.8578 10.3917 11.869C9.86995 11.7571 9.41133 11.8885 8.92795 11.6352C8.3347 11.3244 7.84612 11.5186 7.57447 11.4978C7.30202 11.4766 7.22651 11.2545 7.16339 11.3104C7.10027 11.3664 7.22571 11.5989 7.58725 11.69C7.94839 11.7807 8.15693 11.5645 8.884 11.9361C9.50082 12.2525 9.8312 12.0883 10.313 12.2593L10.3082 12.3108L7.10147 12.4315C7.10147 12.4315 7 12.4315 7 12.499C7 12.5669 7.10147 12.5661 7.10147 12.5661ZM11.7416 11.9241C11.9617 11.9241 12.012 11.9748 12.1139 12.0599C12.2154 12.1442 12.2661 12.1274 12.2829 12.1442C12.2997 12.1614 12.2829 12.2117 12.2493 12.195C12.1761 12.1587 12.1078 12.1133 12.046 12.0599C11.9445 11.9748 11.843 11.9748 11.7416 11.9748C11.4364 11.9748 11.2674 12.2289 11.2338 12.2117C11.1999 12.1946 11.4028 11.9241 11.7416 11.9241ZM12.149 12.2113C12.0338 12.2936 11.897 12.3404 11.7555 12.346L11.7508 12.3468L11.7484 12.346C11.5906 12.352 11.4423 12.3104 11.3521 12.2293C11.4364 12.0935 11.5806 12.028 11.7304 12.028C11.881 12.028 12.0392 12.0935 12.149 12.2113ZM11.3349 12.296C11.6737 12.4319 11.8762 12.4319 12.0116 12.3644C12.147 12.296 12.181 12.2621 12.215 12.2621C12.2485 12.2621 12.2485 12.296 12.0791 12.3979C11.9098 12.4994 11.6225 12.5162 11.3349 12.296ZM12.4998 13.8154C12.4294 13.8156 12.3611 13.8394 12.3058 13.8831C12.2506 13.9268 12.2117 13.9878 12.1954 14.0563C12.1954 13.9755 12.2275 13.898 12.2847 13.8408C12.3418 13.7836 12.4194 13.7515 12.5002 13.7515C12.581 13.7515 12.6586 13.7836 12.7157 13.8408C12.7729 13.898 12.805 13.9755 12.805 14.0563C12.7887 13.9877 12.7497 13.9265 12.6943 13.8828C12.6389 13.839 12.5704 13.8153 12.4998 13.8154ZM12.4998 13.7463H12.4974C12.1251 13.7463 12.2961 13.5429 11.9401 13.509C11.9605 13.5066 11.9785 13.5066 11.9964 13.5066C12.1199 13.4706 12.2062 13.4567 12.2717 13.4543C12.3823 13.4491 12.4331 13.4738 12.4966 13.4738H12.499C12.5997 13.4738 12.6668 13.4083 12.9952 13.505C13.0147 13.505 13.0359 13.5066 13.0587 13.509C12.974 13.4746 12.9045 13.4079 12.7862 13.3404C12.668 13.2725 12.5665 13.3548 12.499 13.3548H12.4966C12.4291 13.3548 12.328 13.2725 12.2094 13.3404C12.0907 13.4079 12.024 13.4746 11.9397 13.509C12.0919 13.4071 12.159 13.2533 12.3284 13.2533C12.362 13.2533 12.4291 13.2717 12.4966 13.3056H12.499C12.5665 13.2717 12.6336 13.2533 12.6672 13.2533C12.8366 13.2533 12.9061 13.4071 13.0583 13.509H13.0591C12.7035 13.5429 12.8721 13.7463 12.4998 13.7463ZM12.94 12.3979C12.7707 12.296 12.7707 12.2621 12.805 12.2621C12.8386 12.2621 12.8721 12.296 13.008 12.3644C13.143 12.4319 13.3459 12.4319 13.6843 12.296H13.6847C13.3967 12.5162 13.109 12.4994 12.94 12.3979ZM12.8713 12.2293C12.9556 12.0935 13.0994 12.028 13.2496 12.028C13.4003 12.028 13.5577 12.0935 13.6679 12.2113C13.4142 12.3979 13.0407 12.3811 12.8713 12.2293ZM13.7858 12.2113C13.7522 12.2285 13.5828 11.9744 13.278 11.9744C13.1761 11.9744 13.0751 11.9744 12.9732 12.0595C12.8721 12.1438 12.8042 12.1778 12.7703 12.1946C12.7363 12.2113 12.7195 12.161 12.7363 12.1438C12.7535 12.127 12.8042 12.1438 12.9057 12.0595C13.0076 11.9744 13.0583 11.9237 13.278 11.9237C13.6164 11.9241 13.8197 12.1946 13.7858 12.2113ZM12.5817 12.0491C12.5933 11.9836 12.6113 11.9193 12.6348 11.8566C13.0072 11.5517 13.5141 11.5182 13.8868 12.0248L13.8872 12.0256L13.8868 12.0248C13.4973 11.6868 13.0076 11.6364 12.7367 11.8901C12.673 11.973 12.6299 12.0698 12.6109 12.1726C12.5765 12.366 12.6364 12.5741 12.7874 12.7875C12.7621 12.7916 12.7386 12.8033 12.7199 12.821C12.5853 12.5637 12.5378 12.3 12.5817 12.0491ZM12.5098 13.0408C12.5536 13.0383 12.596 13.0243 12.6328 13.0004C12.6696 12.9764 12.6995 12.9432 12.7195 12.9041C12.721 12.9301 12.7324 12.9545 12.7512 12.9725C12.77 12.9904 12.795 13.0005 12.821 13.0008C12.8343 13.0009 12.8475 12.9983 12.8598 12.9932C12.8721 12.9882 12.8833 12.9807 12.8927 12.9713C12.9021 12.9619 12.9096 12.9508 12.9147 12.9385C12.9198 12.9262 12.9225 12.913 12.9225 12.8997C12.9228 12.8787 12.9166 12.8581 12.9048 12.8408C12.8929 12.8235 12.8759 12.8103 12.8561 12.803C12.8808 12.8077 12.904 12.8183 12.9236 12.834C12.9432 12.8497 12.9587 12.87 12.9686 12.893C12.9785 12.9161 12.9826 12.9413 12.9805 12.9663C12.9783 12.9914 12.9701 13.0155 12.9565 13.0366C12.9428 13.0577 12.9242 13.0751 12.9022 13.0872C12.8803 13.0994 12.8556 13.106 12.8305 13.1064C12.8054 13.1068 12.7806 13.1011 12.7582 13.0896C12.7359 13.0782 12.7167 13.0614 12.7023 13.0408C12.644 13.0847 12.5625 13.0891 12.5194 13.0899H12.4994C12.4559 13.0891 12.3744 13.0847 12.316 13.0408C12.2972 13.0669 12.2706 13.0865 12.2401 13.0967C12.2095 13.1068 12.1765 13.1071 12.1457 13.0974C12.115 13.0877 12.0881 13.0685 12.0689 13.0426C12.0497 13.0168 12.0392 12.9855 12.0388 12.9533C12.0386 12.9176 12.0509 12.883 12.0736 12.8556C12.0963 12.8281 12.128 12.8095 12.163 12.803C12.1405 12.8111 12.1215 12.827 12.1094 12.8477C12.0973 12.8684 12.093 12.8927 12.0971 12.9164C12.1012 12.94 12.1135 12.9614 12.1318 12.9769C12.1502 12.9923 12.1734 13.0008 12.1974 13.0008C12.2234 13.0006 12.2484 12.9905 12.2673 12.9726C12.2861 12.9546 12.2974 12.9301 12.2989 12.9041C12.319 12.9434 12.349 12.9767 12.386 13.0006C12.4231 13.0246 12.4657 13.0385 12.5098 13.0408ZM11.1327 12.0248C11.5051 11.5182 12.012 11.5517 12.3843 11.8566C12.4079 11.9193 12.4259 11.9836 12.4375 12.0491C12.4818 12.3 12.4343 12.5637 12.2997 12.821C12.2809 12.8032 12.2572 12.7915 12.2317 12.7875C12.3827 12.5741 12.4427 12.366 12.4091 12.1726C12.3895 12.0699 12.3463 11.9732 12.2829 11.8901C12.012 11.6364 11.5218 11.6868 11.1327 12.0248L11.1323 12.0256H11.1319L11.1327 12.0248Z" fill="white" fill-opacity="0.3"/>
<path d="M12.5 0C5.59667 0 0 5.59667 0 12.5C0 19.4033 5.59667 25 12.5 25C19.4033 25 25 19.4033 25 12.5C25 5.59667 19.4033 0 12.5 0ZM2.855 5.94458H22.145C23.42 7.81417 24.1667 10.0712 24.1667 12.5C24.1667 14.9288 23.42 17.1858 22.145 19.0554H2.855C1.58 17.1858 0.833333 14.9288 0.833333 12.5C0.833333 10.0712 1.58 7.81417 2.855 5.94458Z" fill="white" fill-opacity="0.3"/>
</svg>
