<svg width="25" height="25" viewBox="0 0 25 25" fill="none" xmlns="http://www.w3.org/2000/svg">
<path d="M6.98209 9.80708C7.97532 9.51486 9.00509 9.36545 10.0404 9.36333C13.5246 9.36333 16.615 10.9917 18.5579 13.495C18.6113 13.17 18.6458 12.8396 18.6458 12.5C18.6458 9.10583 15.8942 6.35416 12.5 6.35416C10.0729 6.35416 7.98084 7.76416 6.98209 9.80708Z" fill="white" fill-opacity="0.3"/>
<path d="M10.0404 11.0387C8.73999 11.0387 7.51041 11.3204 6.39624 11.8054C6.36914 12.036 6.35509 12.2679 6.35416 12.5C6.35416 15.8942 9.10582 18.6458 12.5 18.6458C14.7962 18.6458 16.795 17.3842 17.85 15.5183C16.3354 12.8537 13.4062 11.0387 10.0404 11.0387ZM8.40291 14.5487C8.29428 14.5487 8.1901 14.5056 8.11329 14.4288C8.03648 14.352 7.99332 14.2478 7.99332 14.1392C7.99332 14.0305 8.03648 13.9264 8.11329 13.8495C8.1901 13.7727 8.29428 13.7296 8.40291 13.7296C8.51153 13.7296 8.61571 13.7727 8.69253 13.8495C8.76934 13.9264 8.81249 14.0305 8.81249 14.1392C8.81249 14.2478 8.76934 14.352 8.69253 14.4288C8.61571 14.5056 8.51153 14.5487 8.40291 14.5487ZM8.40291 12.9096C8.34917 12.9096 8.29596 12.8991 8.24629 12.8786C8.19663 12.8581 8.15149 12.828 8.11346 12.79C8.07543 12.7521 8.04524 12.707 8.02463 12.6574C8.00402 12.6078 7.99338 12.5546 7.99332 12.5008C7.99327 12.4471 8.0038 12.3939 8.02431 12.3442C8.04482 12.2945 8.07492 12.2494 8.11287 12.2114C8.15083 12.1733 8.1959 12.1432 8.24552 12.1225C8.29515 12.1019 8.34834 12.0913 8.40207 12.0912C8.51059 12.0911 8.61471 12.1341 8.69152 12.2108C8.76833 12.2874 8.81155 12.3915 8.81166 12.5C8.81177 12.6085 8.76876 12.7126 8.69211 12.7894C8.61545 12.8663 8.51142 12.9095 8.40291 12.9096ZM10.0417 15.3683C9.93303 15.3683 9.82885 15.3252 9.75204 15.2484C9.67523 15.1715 9.63207 15.0674 9.63207 14.9587C9.63207 14.8501 9.67523 14.7459 9.75204 14.6691C9.82885 14.5923 9.93303 14.5492 10.0417 14.5492C10.1503 14.5492 10.2545 14.5923 10.3313 14.6691C10.4081 14.7459 10.4512 14.8501 10.4512 14.9587C10.4512 15.0674 10.4081 15.1715 10.3313 15.2484C10.2545 15.3252 10.1503 15.3683 10.0417 15.3683ZM12.5 17.0067C12.4463 17.0067 12.393 16.9962 12.3434 16.9757C12.2937 16.9552 12.2486 16.9251 12.2105 16.8871C12.1725 16.8492 12.1423 16.8041 12.1217 16.7545C12.1011 16.7048 12.0905 16.6516 12.0904 16.5979C12.0904 16.5442 12.1009 16.491 12.1214 16.4413C12.1419 16.3916 12.172 16.3465 12.21 16.3085C12.2479 16.2704 12.293 16.2402 12.3426 16.2196C12.3922 16.199 12.4454 16.1884 12.4992 16.1883C12.6077 16.1882 12.7118 16.2312 12.7886 16.3079C12.8654 16.3845 12.9086 16.4886 12.9087 16.5971C12.9089 16.7056 12.8658 16.8097 12.7892 16.8865C12.7125 16.9633 12.6085 17.0065 12.5 17.0067ZM12.5 15.3683C12.3914 15.3683 12.2872 15.3252 12.2104 15.2484C12.1336 15.1715 12.0904 15.0674 12.0904 14.9587C12.0904 14.8501 12.1336 14.7459 12.2104 14.6691C12.2872 14.5923 12.3914 14.5492 12.5 14.5492C12.6086 14.5492 12.7128 14.5923 12.7896 14.6691C12.8664 14.7459 12.9096 14.8501 12.9096 14.9587C12.9096 15.0674 12.8664 15.1715 12.7896 15.2484C12.7128 15.3252 12.6086 15.3683 12.5 15.3683ZM14.1392 16.1875C14.0306 16.1875 13.9265 16.1444 13.8497 16.0676C13.7729 15.9908 13.7298 15.8867 13.7298 15.7781C13.7298 15.6695 13.7729 15.5654 13.8497 15.4886C13.9265 15.4119 14.0306 15.3687 14.1392 15.3687C14.2477 15.3687 14.3519 15.4119 14.4286 15.4886C14.5054 15.5654 14.5485 15.6695 14.5485 15.7781C14.5485 15.8867 14.5054 15.9908 14.4286 16.0676C14.3519 16.1444 14.2477 16.1875 14.1392 16.1875ZM15.7779 17.0067C15.7241 17.0067 15.6709 16.9962 15.6212 16.9757C15.5715 16.9552 15.5263 16.9252 15.4883 16.8872C15.4502 16.8492 15.42 16.8042 15.3993 16.7545C15.3787 16.7049 15.368 16.6517 15.3679 16.5979C15.3678 16.5441 15.3783 16.4909 15.3988 16.4412C15.4193 16.3915 15.4494 16.3463 15.4874 16.3083C15.5253 16.2702 15.5704 16.24 15.62 16.2193C15.6697 16.1987 15.7229 16.188 15.7767 16.1879C15.8852 16.1877 15.9894 16.2307 16.0663 16.3074C16.1432 16.384 16.1865 16.4881 16.1867 16.5967C16.1868 16.7052 16.1439 16.8094 16.0672 16.8863C15.9905 16.9632 15.8865 17.0065 15.7779 17.0067ZM15.7779 15.3683C15.6693 15.3684 15.5651 15.3254 15.4882 15.2487C15.4113 15.1719 15.368 15.0678 15.3679 14.9592C15.3678 14.8505 15.4108 14.7463 15.4876 14.6694C15.5643 14.5925 15.6684 14.5493 15.7771 14.5492C15.8309 14.5491 15.8841 14.5596 15.9338 14.5802C15.9836 14.6007 16.0287 14.6308 16.0668 14.6688C16.1049 14.7068 16.1351 14.7519 16.1557 14.8016C16.1764 14.8513 16.187 14.9045 16.1871 14.9583C16.1871 15.0121 16.1766 15.0654 16.1561 15.1151C16.1355 15.1648 16.1054 15.21 16.0674 15.2481C16.0294 15.2861 15.9843 15.3164 15.9346 15.337C15.8849 15.3576 15.8317 15.3683 15.7779 15.3683Z" fill="white" fill-opacity="0.3"/>
<path d="M12.5 0C5.59667 0 0 5.59667 0 12.5C0 19.4033 5.59667 25 12.5 25C19.4033 25 25 19.4033 25 12.5C25 5.59667 19.4033 0 12.5 0ZM24.1667 12.5C24.1663 13.3399 24.0752 14.1772 23.895 14.9975L12.5 20.6946L1.10542 14.9975C0.92875 14.1925 0.833333 13.3575 0.833333 12.5C0.833333 11.6425 0.92875 10.8075 1.10542 10.0025L12.5 4.30542L23.895 10.0025C24.0752 10.8228 24.1663 11.6601 24.1667 12.5Z" fill="white" fill-opacity="0.3"/>
</svg>
