<svg width="25" height="25" viewBox="0 0 25 25" fill="none" xmlns="http://www.w3.org/2000/svg">
<path d="M12.5 0C5.59667 0 0 5.59667 0 12.5C0 19.4033 5.59667 25 12.5 25C19.4033 25 25 19.4033 25 12.5C25 5.59667 19.4033 0 12.5 0ZM13.8246 3.07625L14.4183 3.79875L15.3225 3.45333L14.7804 4.23958L15.3679 4.95625L14.4221 4.7425L13.8629 5.53417L13.8404 4.60125L12.9096 4.37167L13.8279 4.01917L13.8246 3.07625ZM11.6942 13.3196L8.4025 11.0133L5.11042 13.3196L6.35333 9.56792L3.07583 7.17375H7.17292L8.40208 3.48625L9.66833 7.17375H13.7288L10.4513 9.56792L11.6942 13.3196ZM15.3221 14.9908L14.4129 14.6521L13.8246 15.3683L13.8279 14.425L12.9096 14.0717L13.8404 13.8429L13.8637 12.91L14.4221 13.7012L15.3679 13.4879L14.775 14.2104L15.3221 14.9908ZM16.0842 11.5638L15.8837 12.5L15.4858 11.6067L14.5483 11.6796L15.2492 11.0525L14.8729 10.16L15.6875 10.6613L16.4079 10.0417L16.2067 10.9867L17.0075 11.4812L16.0842 11.5638ZM16.0637 7.89875L15.7638 8.8125L15.4821 7.88208L14.5483 7.85L15.3071 7.30042L15.0396 6.35458L15.7954 6.9525L16.5433 6.41333L16.2567 7.3175L17.0062 7.91125L16.0637 7.89875Z" fill="white" fill-opacity="0.3"/>
</svg>
