<svg width="25" height="25" viewBox="0 0 25 25" fill="none" xmlns="http://www.w3.org/2000/svg">
<path d="M12.5 0C5.59667 0 0 5.59667 0 12.5C0 19.4033 5.59667 25 12.5 25C19.4033 25 25 19.4033 25 12.5C25 5.59667 19.4033 0 12.5 0ZM7.17167 22.8733C6.19898 22.3717 5.30148 21.736 4.50542 20.985H20.495C19.6989 21.7359 18.8014 22.3716 17.8288 22.8733H7.17167ZM2.88333 19.0954C2.47396 18.5001 2.12091 17.8679 1.82875 17.2071H23.1717C22.8793 17.8678 22.5263 18.5 22.1171 19.0954H2.88333ZM1.17958 15.3187C1.02582 14.6987 0.923524 14.0669 0.87375 13.43H24.1267C24.0769 14.0669 23.9746 14.6987 23.8208 15.3187H1.17958ZM2.72542 6.14208H2.88292L3.02 5.71292C3.04625 5.67625 3.07125 5.63875 3.09833 5.6025L3.27 6.14208H3.89583L3.38958 6.54292L3.58333 7.16375L3.07667 6.795L2.57 7.17333L2.76375 6.54167L2.56792 6.38708C2.61917 6.305 2.6725 6.22375 2.72542 6.14208ZM3.58333 12.0804L3.07667 11.7117L2.57 12.09L2.76375 11.4583L2.25708 11.0583H2.88292L3.07667 10.4508L3.27 11.0583H3.89583L3.38958 11.4592L3.58333 12.0804ZM11.2708 3.07625L11.4646 3.68375H12.0904L11.5837 4.08458L11.7775 4.70583L11.2708 4.33667L10.7642 4.715L10.9579 4.08375L10.4513 3.68333H11.0771L11.2708 3.07625ZM11.0771 8.60042L11.2708 7.99333L11.4646 8.60042H12.0904L11.5837 9.00167L11.7775 9.6225L11.2708 9.25333L10.7642 9.63167L10.9579 9.00042L10.4513 8.6H11.0771V8.60042ZM9.94458 6.54292L10.1383 7.16375L9.63208 6.795L9.12542 7.17333L9.31875 6.54167L8.8125 6.14167H9.43833L9.63208 5.53417L9.82542 6.14167H10.4513L9.94458 6.54292ZM10.1383 12.0804L9.63208 11.7117L9.12542 12.09L9.31875 11.4583L8.8125 11.0583H9.43833L9.63208 10.4508L9.82542 11.0583H10.4513L9.94458 11.4592L10.1383 12.0804ZM8.30625 4.08458L8.5 4.70583L7.99333 4.33667L7.48667 4.715L7.68042 4.08375L7.17375 3.68333H7.79958L7.99333 3.07583L8.18708 3.68333H8.81292L8.30625 4.08458ZM7.79958 8.60042L7.99333 7.99333L8.18708 8.60042H8.81292L8.30625 9.00167L8.5 9.6225L7.99333 9.25333L7.48667 9.63167L7.68042 9.00042L7.17375 8.6H7.79958V8.60042ZM6.66708 6.54292L6.86083 7.16375L6.35417 6.795L5.8475 7.17333L6.04125 6.54167L5.53458 6.14167H6.16042L6.35417 5.53417L6.54792 6.14167H7.17375L6.66708 6.54292ZM6.16042 11.0588L6.35417 10.4513L6.54792 11.0588H7.17375L6.66708 11.4596L6.86083 12.0804L6.35417 11.7117L5.8475 12.09L6.04125 11.4583L5.53458 11.0583H6.16042V11.0588ZM5.02792 9.00167L5.22167 9.6225L4.715 9.25333L4.20833 9.63167L4.40208 9.00042L3.89542 8.6H4.52125L4.715 7.99292L4.90875 8.6H5.53458L5.02792 9.00167ZM12.5 9.65208H23.8133C23.9675 10.2638 24.0708 10.895 24.1237 11.5404H12.5V9.65208ZM12.5 7.76333V5.875H22.0954C22.5073 6.4702 22.863 7.10236 23.1579 7.76333H12.5ZM12.5 3.98542V2.09667H17.77C18.7524 2.59623 19.6593 3.2321 20.4637 3.98542H12.5ZM9.80167 1.15167L9.82542 1.22583H10.4513L9.94458 1.62667L10.1383 2.2475L9.63208 1.87833L9.12542 2.25708L9.31875 1.62542L8.9975 1.37125C9.26288 1.28859 9.53111 1.21535 9.80167 1.15167ZM4.90875 3.68375H5.53458L5.02792 4.08458L5.22167 4.70583L4.715 4.33667L4.20833 4.715L4.38958 4.125C4.555 3.96458 4.72583 3.80917 4.90083 3.65875L4.90875 3.68375ZM1.63125 8.60042H2.25708L1.75042 9.00167L1.94417 9.6225L1.4375 9.25333L1.25833 9.38708C1.35 9.0575 1.45375 8.73375 1.57292 8.41625L1.63125 8.60042Z" fill="white" fill-opacity="0.3"/>
</svg>
