<svg width="25" height="25" viewBox="0 0 25 25" fill="none" xmlns="http://www.w3.org/2000/svg">
<path d="M11.5 9C11.7761 9 12 8.77614 12 8.5C12 8.22386 11.7761 8 11.5 8C11.2239 8 11 8.22386 11 8.5C11 8.77614 11.2239 9 11.5 9Z" fill="white" fill-opacity="0.3"/>
<path d="M15.7936 15.9051C15.9008 15.827 15.9728 15.7097 15.9937 15.5787C16.0146 15.4478 15.9828 15.3139 15.9052 15.2063C15.8471 15.1263 15.7666 15.0653 15.6738 15.031C15.581 14.9967 15.4802 14.9907 15.384 15.0137C15.2877 15.0367 15.2005 15.0877 15.1333 15.1602C15.0661 15.2327 15.0219 15.3235 15.0063 15.4212C14.9907 15.5188 15.0044 15.6188 15.0457 15.7087C15.0869 15.7985 15.1539 15.8741 15.2382 15.9259C15.3225 15.9777 15.4202 16.0033 15.519 15.9997C15.6179 15.996 15.7134 15.9631 15.7936 15.9051Z" fill="white" fill-opacity="0.3"/>
<path d="M16.3457 10.0246C16.2831 10.0446 16.2251 10.0768 16.175 10.1194C16.125 10.162 16.0839 10.2141 16.0541 10.2727C16.0243 10.3313 16.0064 10.3952 16.0014 10.4607C15.9965 10.5263 16.0045 10.5922 16.0252 10.6546C16.0557 10.7486 16.1135 10.8315 16.1911 10.8927C16.2687 10.9539 16.3628 10.9907 16.4613 10.9985C16.5598 11.0062 16.6584 10.9845 16.7446 10.9362C16.8309 10.8878 16.9008 10.815 16.9456 10.7268C16.9905 10.6387 17.0082 10.5392 16.9965 10.441C16.9848 10.3428 16.9443 10.2503 16.8801 10.1751C16.8159 10.0999 16.7308 10.0455 16.6357 10.0187C16.5406 9.9919 16.4396 9.99395 16.3457 10.0246Z" fill="white" fill-opacity="0.3"/>
<path d="M12.5 0C5.59667 0 0 5.59667 0 12.5C0 19.4033 5.59667 25 12.5 25C19.4033 25 25 19.4033 25 12.5C25 5.59667 19.4033 0 12.5 0ZM17.4796 11.7621C17.0271 11.7454 16.3354 12.26 15.8817 12.2442C14.8387 12.2096 14.5108 11.5871 13.71 11.5587C13.0067 11.5342 12.5237 11.9254 12.1542 12.5242C13.8742 12.0462 15.6675 13.0221 16.1596 14.7087C16.6546 16.3983 15.6575 18.16 13.9346 18.6458C13.9346 18.6458 14.8229 18.2204 14.5396 17.2521C14.4146 16.8254 13.7025 16.3396 13.5767 15.9108C13.29 14.9296 13.7912 14.4317 13.5712 13.6754C13.3767 13.0117 12.8496 12.6846 12.1538 12.5237C13.1488 13.98 12.755 15.9521 11.2712 16.9333C9.78458 17.9146 7.76708 17.5308 6.76375 16.0737C6.76375 16.0737 7.45042 16.7712 8.3025 16.2079C8.67833 15.9604 8.92958 15.1454 9.30583 14.8971C10.17 14.3254 10.8079 14.6413 11.4738 14.2C12.0567 13.8142 12.2129 13.2208 12.1538 12.5237C11.0479 13.9021 9.01208 14.1446 7.60208 13.0638C6.18875 11.9821 5.9375 9.9825 7.04208 8.5975C7.04208 8.5975 6.57792 9.45292 7.38792 10.0733C7.74542 10.3467 8.61292 10.3292 8.97 10.6029C9.79208 11.2325 9.68375 11.9242 10.3158 12.4087C10.8712 12.8337 11.4946 12.795 12.1538 12.5237C10.4742 11.9183 9.61 10.0971 10.2221 8.44917C10.8363 6.7975 12.6996 5.94583 14.3842 6.54667C14.3842 6.54667 13.41 6.37833 13.0583 7.32542C12.9042 7.7425 13.1879 8.54583 13.0329 8.96417C12.6767 9.92417 11.9717 10.0375 11.6975 10.7767C11.4567 11.4254 11.6862 11.995 12.1533 12.5246C12.2217 10.7733 13.7229 9.40417 15.5113 9.46583C17.3033 9.52792 18.7062 11.0008 18.6437 12.7579C18.6442 12.7571 18.505 11.7971 17.4796 11.7621Z" fill="white" fill-opacity="0.3"/>
</svg>
