<svg width="25" height="25" viewBox="0 0 25 25" fill="none" xmlns="http://www.w3.org/2000/svg">
<path d="M12.5 17.4167C15.2154 17.4167 17.4167 15.2154 17.4167 12.5C17.4167 9.78461 15.2154 7.58334 12.5 7.58334C9.78461 7.58334 7.58334 9.78461 7.58334 12.5C7.58334 15.2154 9.78461 17.4167 12.5 17.4167Z" fill="white" fill-opacity="0.3"/>
<path d="M12.5 0C5.59667 0 0 5.59667 0 12.5C0 19.4033 5.59667 25 12.5 25C19.4033 25 25 19.4033 25 12.5C25 5.59667 19.4033 0 12.5 0ZM12.5 24.1667C6.06708 24.1667 0.833333 18.9329 0.833333 12.5C0.833333 6.06708 6.06708 0.833333 12.5 0.833333C18.9329 0.833333 24.1667 6.06708 24.1667 12.5C24.1667 18.9329 18.9329 24.1667 12.5 24.1667Z" fill="white" fill-opacity="0.3"/>
</svg>
