<svg width="25" height="25" viewBox="0 0 25 25" fill="none" xmlns="http://www.w3.org/2000/svg">
<path d="M15.8888 12.9792C16.205 12.7496 16.1592 12.6754 16.0825 12.3588C16.0563 12.2504 16.0188 12.3871 16.0138 12.4433C15.9988 12.3339 15.9612 12.2287 15.9033 12.1346C15.785 12.2558 15.7517 12.4133 15.7396 12.5771C15.7129 12.4558 15.66 12.3354 15.5388 12.2879H15.5379C15.6071 12.4013 15.5821 12.4829 15.5696 12.61C15.55 12.7938 15.6958 12.8929 15.7 13.0729C15.7079 13.2496 15.6275 13.3642 15.4983 13.4729C15.5071 13.4308 15.5042 13.3896 15.5163 13.3471C15.1017 13.4913 15.1842 13.7313 15.2008 14.07C15.2179 14.4279 15.0013 14.3621 14.7513 14.5517C14.7722 14.5081 14.7823 14.46 14.7808 14.4117C14.7793 14.3633 14.7661 14.316 14.7425 14.2738L14.7421 14.2746C14.7238 14.5025 14.4275 14.5383 14.3646 14.7425C14.3329 14.8454 14.3492 14.9696 14.2579 15.0475C14.1813 15.0971 14.0608 15.1654 14.0408 15.2625C13.95 15.2179 13.8588 15.2196 13.7629 15.2379C13.8067 15.2143 13.8445 15.1809 13.8733 15.1404C13.4558 14.9533 13.335 15.3679 12.9846 15.4358C12.8717 15.4283 12.5808 15.2725 12.5675 15.4446C12.9171 15.4421 13.1033 15.7671 13.4054 15.7771C13.6613 15.7858 13.8583 15.5533 14.1142 15.5525L14.1146 15.5517C14.0908 15.535 13.9492 15.4733 13.8454 15.4742C14.0392 15.3638 14.1671 15.0996 14.4054 15.0983C14.8346 15.095 15.0121 15.0025 15.1521 14.6117C15.109 14.6088 15.0659 14.6172 15.0271 14.6363C15.0271 14.4554 15.21 14.2813 15.3479 14.1813C15.7704 14.1029 15.6996 13.7533 15.9542 13.4967C15.8538 13.5017 15.7829 13.5513 15.7113 13.6246C15.7263 13.3796 15.6521 13.1496 15.8888 12.9792Z" fill="white" fill-opacity="0.3"/>
<path d="M16.0825 12.3592C16.0933 12.4029 16.0775 12.3367 16.0825 12.3592V12.3592Z" fill="white" fill-opacity="0.3"/>
<path d="M12.0158 15.4362C11.6658 15.3683 11.545 14.9537 11.1275 15.1408C11.1556 15.182 11.1936 15.2155 11.2379 15.2383C11.1412 15.22 11.05 15.2179 10.9604 15.2629C10.9392 15.1662 10.8192 15.0979 10.7429 15.0479C10.6517 14.9696 10.6675 14.8458 10.6358 14.7429C10.5733 14.5387 10.2762 14.5029 10.2587 14.275L10.2583 14.2742C10.2349 14.3165 10.2218 14.3637 10.2203 14.4121C10.2188 14.4604 10.2288 14.5084 10.2496 14.5521C9.99999 14.3625 9.78249 14.4283 9.79999 14.0704C9.81624 13.7317 9.89832 13.4912 9.48457 13.3475C9.49665 13.39 9.49332 13.4312 9.50207 13.4733C9.37249 13.3646 9.29249 13.25 9.29999 13.0733C9.30415 12.8929 9.44915 12.7942 9.43082 12.6104C9.41749 12.4833 9.39249 12.4021 9.46207 12.2883H9.46124C9.33999 12.3358 9.28749 12.4562 9.25957 12.5775C9.24832 12.4142 9.21499 12.2562 9.09707 12.135H9.09665C9.03874 12.2279 9.00165 12.335 8.98582 12.4437C8.98082 12.3875 8.94374 12.2512 8.91707 12.3592C8.84082 12.6758 8.79499 12.75 9.11124 12.9796C9.34749 13.1496 9.27332 13.38 9.28874 13.625C9.21749 13.5517 9.14624 13.5021 9.04582 13.4971C9.30123 13.7533 9.2304 14.1033 9.65249 14.1817C9.7904 14.2817 9.97374 14.4558 9.97374 14.6367C9.93477 14.6177 9.89155 14.6093 9.84832 14.6121C9.98832 15.0029 10.1658 15.0954 10.5954 15.0987C10.8329 15.1 10.9612 15.3646 11.1558 15.4746C11.0517 15.4737 10.9092 15.5354 10.8867 15.5521V15.5529C11.1429 15.5537 11.34 15.7867 11.595 15.7775C11.8967 15.7679 12.0842 15.4425 12.4337 15.445C12.42 15.2729 12.1292 15.4287 12.0158 15.4362Z" fill="white" fill-opacity="0.3"/>
<path d="M12.6313 15.1221C12.7075 15.1221 12.8546 15.1363 12.9175 15.0717C12.93 15.0688 12.9425 15.0675 12.9554 15.0642C13.0304 15.1113 13.0967 15.0725 13.1233 15.0104C13.2829 14.9566 13.4382 14.8909 13.5879 14.8138C13.5549 14.8047 13.524 14.789 13.4972 14.7677C13.4705 14.7463 13.4483 14.7198 13.4321 14.6896C13.4496 14.6046 13.7442 14.5421 13.8208 14.5313L13.8267 14.4325C13.6621 14.4838 13.4013 14.5279 13.1088 14.55C13.17 14.4467 13.0983 14.28 12.9646 14.3438C12.9038 14.3738 12.9213 14.3854 12.8642 14.3621C12.8955 14.3054 12.9419 14.2585 12.9983 14.2267C13.0783 14.181 13.1676 14.1542 13.2594 14.1484C13.3513 14.1425 13.4433 14.1578 13.5283 14.1929C13.7783 14.2933 14.6779 14.2633 14.4008 13.7858C14.0567 13.3592 13.8921 13.9888 13.5246 13.9692C13.5525 13.8208 13.495 13.7371 13.4021 13.6896C13.5329 13.7329 13.6554 13.8029 13.5617 13.8779C13.6088 13.8996 13.6842 13.9025 13.7167 13.8521C13.8604 13.6367 13.4471 13.5388 13.25 13.3675C13.3575 13.3263 13.4863 13.2908 13.5308 13.3438C13.62 13.45 13.7108 13.3404 13.7758 13.3892C13.8642 13.4558 14.1821 13.4004 14.2779 13.3483C14.3046 13.3338 14.725 13.2492 14.6596 13.1879C14.6554 13.1833 14.6571 13.1846 14.6596 13.1875C14.4633 13.005 14.2258 12.8525 14.0117 12.6938C13.8154 12.5475 13.62 12.4008 13.425 12.2533C13.3238 12.1771 13.3271 12.0254 13.2933 11.8875C13.6592 12.2529 14.0442 12.4588 13.9925 11.7517C14.2317 11.9363 14.7213 13.0854 14.7746 13.0854C14.8838 13.0854 14.7942 11.8433 14.7875 11.7363C14.9675 11.89 14.9371 13.2496 14.9721 13.2483C15.1467 13.2417 15.4529 11.4342 14.7596 10.5233C14.5554 10.255 13.7858 9.31042 12.6621 9.22167C12.5367 9.21167 12.215 9.32875 12.1092 9.39584C11.7429 9.62959 12.5208 9.83 12.5658 10.0229C12.5813 10.0904 12.5925 10.1604 12.6021 10.2313C12.4942 10.0171 12.3371 9.88917 12.3317 9.84125C12.1404 9.93292 11.7908 9.7875 11.7604 9.59792C11.7421 9.66945 11.7051 9.73486 11.6533 9.7875C11.645 9.66459 11.6204 9.66667 11.5796 9.5875C11.59 9.70792 11.5829 9.87167 11.4542 9.91625C11.515 9.85042 11.4704 9.73667 11.4167 9.68875C11.4251 9.74261 11.4218 9.79765 11.4069 9.85009C11.392 9.90253 11.3659 9.95112 11.3304 9.9925C11.3525 9.90709 11.2988 9.85584 11.2867 9.79917C11.2613 10.0571 10.9496 10.2017 11.0879 10.3088C11.0413 10.3117 11.0004 10.3171 10.9783 10.3254C10.9563 10.3717 10.9092 10.4171 10.8667 10.465C10.8017 10.4871 10.6892 10.5083 10.6288 10.4767C10.4917 10.38 10.9092 10.2358 10.8663 10.2175C10.8558 10.2129 10.4517 10.4317 10.6283 10.1913C10.6804 10.1204 10.7475 10.0079 10.7858 9.93125C10.8317 9.83834 10.6625 9.9425 10.6746 9.94125C10.6192 9.94792 10.5946 9.93084 10.5429 9.97334C10.3008 10.1633 10.3696 10.2708 10.4017 10.5358C10.4117 10.7692 10.6321 10.7296 10.8129 10.7163C10.8692 10.8092 11.0117 10.9275 11.0929 10.8375C11.0671 10.8201 11.0438 10.7992 11.0238 10.7754C11.0729 10.8108 11.1192 10.8533 11.1188 10.8929C10.9971 11.1608 10.6425 11.2075 10.5371 11.4913C10.4563 11.7083 10.4933 12.0296 10.6963 12.1671C10.8054 12.2413 10.9104 12.2446 11.03 12.2338C11.3113 12.2096 11.2533 12.2408 11.2333 12.3017C11.085 12.32 10.8771 12.4492 10.8546 12.5942C10.7208 12.6275 10.6838 12.5113 10.6558 12.3963C10.6104 12.2096 10.3196 12.125 10.3196 11.945C10.3192 11.7675 10.4854 11.6225 10.3483 11.4488C10.2342 11.3038 10.0388 11.2092 10.0146 11.2975C9.99209 11.3808 10.1892 11.3929 10.1892 11.5954C10.19 11.8583 9.94834 12.0354 10.2246 12.2663C10.4363 12.4433 10.4308 12.9108 10.7429 12.9108C10.84 12.9108 10.925 12.8842 10.9746 12.8183C11.1375 12.8442 11.4775 12.7663 11.5246 12.7083C11.5492 12.76 11.5788 12.7917 11.61 12.8142C11.5338 12.8804 11.7638 12.9983 11.8296 13.0183C12.1388 13.1133 12.3879 12.8367 12.3863 12.7933C12.3858 12.7929 12.7679 13.1629 12.9688 13.34C12.8879 13.4204 12.7963 13.4808 12.6992 13.4279C12.6263 13.3883 12.4246 13.49 12.4075 13.6033C12.3654 13.5958 12.3253 13.5798 12.2896 13.5563C12.0379 13.3821 11.7025 13.2996 11.5213 13.605C11.3421 13.3788 10.91 13.1058 10.6554 13.3767C10.6533 13.1217 10.4233 12.7683 10.1304 12.8067C9.81042 12.8488 9.93667 13.2613 10.0979 13.4008C10.2263 13.5121 10.3954 13.5633 10.5638 13.5567C10.5529 13.6258 10.5954 13.6863 10.645 13.7296C10.8354 13.8983 11.2617 13.9542 11.4642 13.78C11.4808 14.2004 12.2688 14.1925 12.4842 13.9746C12.4467 14.0625 12.4138 14.1946 12.4121 14.3133C12.3358 14.3133 12.25 14.3171 12.1738 14.3213C12.1133 14.3238 12.0525 14.3125 11.9908 14.3188C11.925 14.3254 11.8988 14.2958 11.8446 14.2763C11.7692 14.25 11.7083 14.3083 11.6904 14.3779C11.6879 14.3883 11.6904 14.3958 11.6908 14.4042C11.5442 14.3417 11.4283 14.2588 11.3646 14.1496C11.185 14.3783 10.9213 14.2108 10.6092 14.025C10.6696 14.1021 10.8275 14.5188 10.8013 14.4675C10.8833 14.5004 11.42 14.615 11.4275 14.7458C11.4152 14.7735 11.3963 14.7977 11.3725 14.8165C11.3486 14.8352 11.3206 14.8479 11.2908 14.8533C11.4404 14.9092 11.5775 14.9542 11.7096 14.995C11.7329 15.0642 11.8158 15.1025 11.8921 15.0483C11.9133 15.0538 11.9333 15.0567 11.9542 15.0613C12.0113 15.1121 12.12 15.1113 12.19 15.1138C12.2229 15.1154 12.2567 15.1146 12.29 15.1154C12.3867 15.1242 12.4838 15.1258 12.5804 15.1204C12.5988 15.1213 12.615 15.1221 12.6313 15.1221ZM10.3992 10.5075C10.3979 10.4992 10.3979 10.4979 10.3992 10.5075V10.5075ZM11.2917 10.5967C11.2825 10.5879 11.2771 10.5721 11.2658 10.5658C11.25 10.5571 11.2396 10.5579 11.2254 10.5525C11.2321 10.5521 11.2396 10.5504 11.2458 10.5508C11.2721 10.5513 11.2842 10.5742 11.2917 10.5967ZM10.7883 11.7375C10.7825 11.6483 11.2588 11.1621 11.3029 11.1117C11.4008 10.9988 11.405 10.7788 11.3354 10.6496C11.4275 10.6567 11.6629 10.5513 11.65 10.4692C11.6488 10.4621 11.6421 10.4567 11.6396 10.4504C11.6779 10.4788 11.7338 10.5438 11.7513 10.5408C11.7363 10.6004 11.5967 10.7492 11.7071 10.7667C11.685 10.8013 11.5308 11.0729 11.5283 11.0725C11.6446 11.0892 11.5496 11.16 11.505 11.2471C11.3921 11.4713 11.5229 11.6733 11.5567 11.9042C11.545 11.8254 11.6933 11.9538 11.6983 12.0633C11.7063 12.2421 11.8688 12.2896 11.9104 12.4329C11.7 12.2475 11.6654 12.4358 11.8983 12.5488C11.8474 12.5502 11.7984 12.5684 11.7588 12.6004C11.6847 12.5213 11.621 12.4331 11.5692 12.3379C11.5579 12.2146 11.5575 12.0917 11.4388 11.9908C11.2425 11.8246 10.8138 12.1492 10.7883 11.7375ZM13.0396 13.6508C12.9933 13.6569 12.9474 13.6657 12.9021 13.6771C12.9304 13.6621 12.9842 13.6546 13.0396 13.6508Z" fill="white" fill-opacity="0.3"/>
<path d="M14.4012 13.7863C14.4071 13.7958 14.4092 13.7992 14.4108 13.8029L14.4012 13.7863Z" fill="white" fill-opacity="0.3"/>
<path d="M14.4108 13.8029C14.4142 13.8087 14.415 13.81 14.4108 13.8029V13.8029Z" fill="white" fill-opacity="0.3"/>
<path d="M12.5 0C5.59667 0 0 5.59667 0 12.5C0 19.4033 5.59667 25 12.5 25C19.4033 25 25 19.4033 25 12.5C25 5.59667 19.4033 0 12.5 0ZM8.4025 23.4221V1.57792C9.67833 1.09792 11.0588 0.833333 12.5 0.833333C13.9412 0.833333 15.3212 1.09792 16.5971 1.57792V23.4221C15.3212 23.9021 13.9412 24.1667 12.5 24.1667C11.0588 24.1667 9.67833 23.9021 8.4025 23.4221Z" fill="white" fill-opacity="0.3"/>
</svg>
