<svg width="25" height="25" viewBox="0 0 25 25" fill="none" xmlns="http://www.w3.org/2000/svg">
<path d="M12.5 0C5.59667 0 0 5.59667 0 12.5C0 19.4033 5.59667 25 12.5 25C19.4033 25 25 19.4033 25 12.5C25 5.59667 19.4033 0 12.5 0ZM11.2012 6.35417C13.0267 6.35417 14.6642 7.16875 15.7779 8.45792C14.9681 7.88829 14.0021 7.58283 13.0121 7.58333C10.3271 7.58333 8.15042 9.78458 8.15042 12.5C8.15042 15.2154 10.3271 17.4167 13.0121 17.4167C14.0396 17.4167 14.9925 17.0938 15.7779 16.5429C14.6637 17.8312 13.0262 18.6458 11.2012 18.6458C7.845 18.6458 5.125 15.8946 5.125 12.5C5.125 9.10583 7.845 6.35417 11.2012 6.35417ZM19.875 14.2725L17.6821 13.59L16.3296 15.3683L16.3346 13.1737L14.1392 12.5L16.335 11.8262L16.33 9.63208L17.6825 11.41L19.8754 10.7275L18.515 12.5L19.875 14.2725Z" fill="white" fill-opacity="0.3"/>
</svg>
