<svg width="25" height="25" viewBox="0 0 25 25" fill="none" xmlns="http://www.w3.org/2000/svg">
<path d="M17.2428 0H6.33696C5.04676 0 4 1.0498 4 2.34375V22.6562C4 23.9502 5.04676 25 6.33696 25H17.2428C18.5329 25 19.5797 23.9502 19.5797 22.6562V2.34375C19.5797 1.0498 18.5329 0 17.2428 0ZM11.7899 23.4375C10.9281 23.4375 10.2319 22.7393 10.2319 21.875C10.2319 21.0107 10.9281 20.3125 11.7899 20.3125C12.6516 20.3125 13.3478 21.0107 13.3478 21.875C13.3478 22.7393 12.6516 23.4375 11.7899 23.4375ZM17.2428 18.1641C17.2428 18.4863 16.9798 18.75 16.6585 18.75H6.9212C6.59986 18.75 6.33696 18.4863 6.33696 18.1641V2.92969C6.33696 2.60742 6.59986 2.34375 6.9212 2.34375H16.6585C16.9798 2.34375 17.2428 2.60742 17.2428 2.92969V18.1641Z" fill="white" fill-opacity="0.3"/>
</svg>
