<svg width="25" height="25" viewBox="0 0 25 25" fill="none" xmlns="http://www.w3.org/2000/svg">
<path d="M14.5938 12.5053C14.5938 5.66293 14.6094 0.0515522 14.6297 0.0359303C14.6454 0.0156219 15.6813 0 16.9235 0C18.725 0 19.2828 0.0156219 19.6469 0.0781094C22.35 0.543642 24.4047 2.57761 24.9172 5.27395C24.989 5.652 25 6.53776 25 12.4756C25 18.8181 25.0078 19.5633 24.8078 20.2491C24.7734 20.3678 24.7328 20.4834 24.6828 20.6271C24.2883 21.7786 23.5766 22.7952 22.6295 23.56C21.6824 24.3247 20.5386 24.8065 19.3297 24.9497C18.8344 25.0013 14.8157 25.0216 14.6766 24.97C14.5985 24.9388 14.5938 23.7953 14.5938 12.5053V12.5053ZM21.8984 12.9256C21.7626 12.5348 21.5331 12.1832 21.2299 11.9016C20.9267 11.62 20.5592 11.417 20.1594 11.3102C19.536 11.1487 18.8743 11.2325 18.3109 11.5444C17.7475 11.8563 17.3252 12.3725 17.1313 12.9865C17.0024 13.4639 16.9949 13.966 17.1094 14.4471C17.3002 15.0707 17.7226 15.5974 18.2899 15.9191C18.8572 16.2407 19.5262 16.3328 20.1594 16.1765C20.9563 15.964 21.5781 15.3891 21.8937 14.5705C22.0656 14.1253 22.0703 13.4114 21.8984 12.9256ZM5.79702 5.18178C5.47202 5.24427 4.97515 5.49266 4.71109 5.72542C4.16735 6.19564 3.8986 6.86426 3.93922 7.65004C3.95953 8.05933 3.9861 8.16869 4.15172 8.49987C4.39391 9.00133 4.76109 9.36845 5.26421 9.61683C5.61108 9.78868 5.69858 9.80898 6.15014 9.82461C6.55795 9.84023 6.70326 9.82461 6.97826 9.73087C8.10168 9.35282 8.7798 8.26242 8.58762 7.14389C8.36574 5.8129 7.10326 4.92246 5.79702 5.18178V5.18178Z" fill="white" fill-opacity="0.3"/>
<path d="M5.35171 0.0827961C4.13695 0.296996 3.00887 0.854315 2.10073 1.68892C1.1926 2.52353 0.542334 3.60056 0.226757 4.7928C0.000196437 5.66762 -0.0154284 6.18002 0.00800886 12.9662C0.0236337 19.1993 0.0298837 19.343 0.133008 19.8242C0.708002 22.4174 2.55174 24.267 5.17046 24.8779C5.51421 24.956 5.94702 24.9716 8.74855 24.9872C11.6485 25.006 11.9485 25.0013 12.0251 24.9247C12.1032 24.8466 12.1079 23.8468 12.1079 12.5209C12.1079 4.12574 12.0923 0.170279 12.0563 0.0984179C12.0048 0.00468662 11.9157 4.98323e-08 8.88449 0.00468662C6.41889 0.0109354 5.67827 0.0265573 5.35327 0.0827961H5.35171ZM10.0392 22.9923L7.92981 22.9673C5.9892 22.947 5.78139 22.9361 5.3939 22.8376C4.58734 22.6386 3.85382 22.2148 3.27854 21.6156C2.70326 21.0164 2.30982 20.2663 2.14393 19.4524C2.0283 18.929 2.0283 6.05036 2.13768 5.53796C2.28797 4.82539 2.61109 4.16065 3.07862 3.60223C3.54615 3.0438 4.14377 2.6088 4.8189 2.33547C5.50327 2.06053 5.81889 2.02928 8.0345 2.02303L10.0376 2.01835V22.9923H10.0392Z" fill="white" fill-opacity="0.3"/>
</svg>
