<svg width="25" height="25" viewBox="0 0 25 25" fill="none" xmlns="http://www.w3.org/2000/svg">
<path fill-rule="evenodd" clip-rule="evenodd" d="M15.8333 0C15.1703 0 14.5344 0.263392 14.0656 0.732233C13.5967 1.20107 13.3333 1.83696 13.3333 2.5V5H2.5C1.83696 5 1.20107 5.26339 0.732233 5.73223C0.263392 6.20107 0 6.83696 0 7.5L0 17.5C0 18.163 0.263392 18.7989 0.732233 19.2678C1.20107 19.7366 1.83696 20 2.5 20H10V23.3333H6.66667V25H22.5C23.163 25 23.7989 24.7366 24.2678 24.2678C24.7366 23.7989 25 23.163 25 22.5V2.5C25 1.83696 24.7366 1.20107 24.2678 0.732233C23.7989 0.263392 23.163 0 22.5 0L15.8333 0ZM13.475 23.3333H11.6667V20H13.3333V22.5C13.3333 22.7917 13.3833 23.0733 13.475 23.3333ZM15.8333 23.3333H22.5C22.721 23.3333 22.933 23.2455 23.0893 23.0893C23.2455 22.933 23.3333 22.721 23.3333 22.5V10H15V22.5C15 22.721 15.0878 22.933 15.2441 23.0893C15.4004 23.2455 15.6123 23.3333 15.8333 23.3333ZM15 8.33333H23.3333V2.5C23.3333 2.27899 23.2455 2.06702 23.0893 1.91074C22.933 1.75446 22.721 1.66667 22.5 1.66667H15.8333C15.6123 1.66667 15.4004 1.75446 15.2441 1.91074C15.0878 2.06702 15 2.27899 15 2.5V8.33333Z" fill="white" fill-opacity="0.3"/>
</svg>
