<svg width="25" height="25" viewBox="0 0 25 25" fill="none" xmlns="http://www.w3.org/2000/svg">
<path d="M24.7777 17.7671C24.2887 18.3843 23.0918 18.8233 23.0918 18.8233L14.1919 22.0202V19.6624L20.7418 17.3296C21.4856 17.064 21.5996 16.6858 20.9949 16.489C20.3918 16.2905 19.2996 16.3483 18.5575 16.614L14.1919 18.1515V15.7046L14.4434 15.6202C14.4434 15.6202 15.7044 15.1733 17.4778 14.9765C19.2512 14.7812 21.4231 15.003 23.1277 15.6483C25.0496 16.2577 25.2652 17.1515 24.7777 17.7671ZM15.0387 13.7546V7.7234C15.0387 7.0156 14.909 6.36404 14.245 6.17966C13.7356 6.0156 13.42 6.48904 13.42 7.19528V22.2952L9.34815 21.003V3C11.0794 3.32187 13.6012 4.08124 14.9575 4.53905C18.4059 5.72185 19.5746 7.19528 19.5746 10.5156C19.5746 13.7515 17.5778 14.978 15.0387 13.753V13.7546ZM1.87633 19.4186C-0.0955318 18.8593 -0.423654 17.703 0.474777 17.0374C1.30602 16.4218 2.71851 15.9593 2.71851 15.9593L8.55753 13.8812V16.2483L4.35444 17.753C3.61382 18.0186 3.49975 18.3952 4.10288 18.5936C4.706 18.7905 5.79818 18.7343 6.54036 18.4686L8.55597 17.7358V19.8546L8.15441 19.9218C6.05163 20.2622 3.89772 20.089 1.87633 19.4171V19.4186Z" fill="white" fill-opacity="0.3"/>
</svg>
