<svg width="25" height="25" viewBox="0 0 25 25" fill="none" xmlns="http://www.w3.org/2000/svg">
<path d="M22.7273 3H2.27273C1.02273 3 0 4.02273 0 5.27273V18.9091C0 20.1591 1.02273 21.1818 2.27273 21.1818H7.95455V23.4545H17.0455V21.1818H22.7273C23.9773 21.1818 24.9886 20.1591 24.9886 18.9091L25 5.27273C25 4.02273 23.9773 3 22.7273 3ZM22.7273 18.9091H2.27273V5.27273H22.7273V18.9091ZM3.40909 15.5V17.7727H5.68182C5.68182 16.5114 4.67045 15.5 3.40909 15.5ZM3.40909 12.0909V13.7159C5.64773 13.7159 7.46591 15.5341 7.46591 17.7727H9.09091C9.09091 14.6364 6.54545 12.0909 3.40909 12.0909ZM3.40909 8.68182V10.3295C7.51136 10.3295 10.8523 13.6591 10.8523 17.7727H12.5C12.5 12.75 8.42045 8.68182 3.40909 8.68182Z" fill="white" fill-opacity="0.3"/>
</svg>
