<svg width="25" height="25" viewBox="0 0 25 25" fill="none" xmlns="http://www.w3.org/2000/svg">
<path d="M11.2532 24.9485C9.27261 24.7444 7.36965 24.0693 5.7032 22.9797C4.30009 22.0656 3.98291 21.6891 3.98291 20.939C3.98291 19.4312 5.64227 16.789 8.4813 13.778C10.0922 12.067 12.3391 10.0623 12.5813 10.117C13.0531 10.2232 16.8281 13.903 18.2406 15.6343C20.4749 18.3734 21.5031 20.6172 20.9812 21.6172C20.5843 22.3766 18.1218 23.8625 16.314 24.4329C14.8234 24.9032 12.8656 25.1032 11.2532 24.9485ZM2.08761 19.3703C0.920435 17.5827 0.331378 15.8233 0.0470051 13.2764C-0.0467441 12.4342 -0.0123694 11.9545 0.261066 10.2295C0.601688 8.07789 1.82668 5.58878 3.3001 4.05751C3.92666 3.40593 3.98291 3.39031 4.74696 3.64656C5.67664 3.95907 6.66882 4.64346 8.20474 6.0341L9.10161 6.84506L8.61255 7.44663C6.33757 10.2389 3.9376 14.1967 3.03135 16.6452C2.53917 17.9765 2.34073 19.3125 2.55323 19.8687C2.69542 20.2437 2.56417 20.1031 2.08449 19.3703H2.08761ZM22.5577 19.675C22.6734 19.1125 22.5281 18.0812 22.1859 17.039C21.4468 14.7843 18.975 10.5889 16.7047 7.73726L15.9906 6.8388L16.7625 6.12942C17.7718 5.20284 18.4734 4.64814 19.2312 4.17626C19.8265 3.80594 20.6796 3.47625 21.0453 3.47625C21.2718 3.47625 22.0671 4.30126 22.7093 5.20128C23.7311 6.65744 24.4451 8.30671 24.8077 10.0482C25.0468 11.1858 25.0671 13.6202 24.8452 14.7546C24.637 15.7706 24.3228 16.762 23.9077 17.7124C23.628 18.3265 22.9327 19.5187 22.6265 19.9062C22.4702 20.1062 22.4702 20.1047 22.5593 19.675H22.5577ZM11.461 3.04968C10.4141 2.51842 8.79849 1.9481 7.90475 1.79497C7.51231 1.73652 7.11535 1.71403 6.71882 1.72778C5.98289 1.76528 6.0157 1.72778 7.19694 1.1684C8.12292 0.723679 9.10155 0.398162 10.1094 0.199629C11.3594 -0.0644384 13.7125 -0.066001 14.9437 0.191816C16.2719 0.473071 17.839 1.05433 18.7218 1.59809L18.9843 1.75903L18.3828 1.72778C17.1859 1.6684 15.4453 2.14966 13.5734 3.06062C13.0094 3.33562 12.5172 3.55437 12.4813 3.54812C12.1358 3.39213 11.795 3.22591 11.4594 3.04968H11.461Z" fill="white" fill-opacity="0.3"/>
</svg>
